<svg width="39" height="77" viewBox="0 0 39 77" fill="none" xmlns="http://www.w3.org/2000/svg">
<path d="M37.5109 62.2263C38.7404 61.1157 38.8369 59.2187 37.7263 57.9891C36.6157 56.7596 34.7187 56.6631 33.4891 57.7737L37.5109 62.2263ZM20 74L18.0929 76.3158C19.2406 77.261 20.9075 77.2229 22.0109 76.2263L20 74ZM4.90712 57.6842C3.62815 56.6309 1.73748 56.8139 0.684209 58.0929C-0.369065 59.3719 -0.186098 61.2625 1.09288 62.3158L4.90712 57.6842ZM33.4891 57.7737L17.9891 71.7737L22.0109 76.2263L37.5109 62.2263L33.4891 57.7737ZM21.9071 71.6842L4.90712 57.6842L1.09288 62.3158L18.0929 76.3158L21.9071 71.6842ZM23 74V0H17V74H23Z" fill="#986581"/>
</svg>
