<svg width="1889" height="593" viewBox="0 0 1889 593" fill="none" xmlns="http://www.w3.org/2000/svg">
<path d="M1479.16 578.445V582.445H1483.16H1880.72H1884.72V578.445V487.62V483.62H1880.72H1586.75V347.415H1841.68H1845.68V343.415V254.184V250.184H1841.68H1586.75V109.995H1880.72H1884.72V105.995V15.1699V11.1699H1880.72H1483.16H1479.16V15.1699V578.445Z" fill="black" stroke="white" stroke-width="8"/>
<path d="M1133.44 578.445V582.445H1137.44H1236.23H1240.23V578.445V109.995H1412.3H1416.3V105.995V15.1699V11.1699H1412.3H961.365H957.365V15.1699V105.995V109.995H961.365H1133.44V578.445Z" fill="black" stroke="white" stroke-width="8"/>
<path d="M601.936 571.858L601.972 571.871L602.009 571.883C635.906 583.182 671.922 588.819 710.033 588.819C737.936 588.819 764.535 585.868 789.819 579.95L789.849 579.943L789.878 579.936C815.796 573.456 838.823 563.178 858.909 549.067C879.627 534.886 895.733 516.595 907.187 494.24C919.235 471.23 925.162 443.476 925.162 411.136C925.162 388.987 921.658 369.834 914.488 353.805C907.917 337.408 898.578 323.646 886.443 312.604C874.419 301.135 859.991 291.62 843.209 284.033C827.062 275.966 809.342 269.258 790.06 263.897C770.229 257.47 749.085 252.389 726.634 248.647C705.11 244.971 685.204 239.466 666.903 232.146L666.794 232.102L666.682 232.065C652.535 227.349 640.297 222.135 629.938 216.442C620.33 210.873 612.853 204.112 607.398 196.194C602.031 187.879 599.307 178.305 599.307 167.342C599.307 154.652 602.093 144.624 607.353 136.963C613.373 128.442 620.871 121.695 629.875 116.685C639.553 111.597 650.287 108.012 662.106 105.955C674.634 103.868 687.157 102.825 699.676 102.825C717.882 102.825 734.712 105.425 750.197 110.587L750.255 110.606L750.313 110.624C765.636 115.221 778.296 122.842 788.401 133.452L788.435 133.488L788.469 133.522C798.331 143.383 804.404 156.824 806.446 174.183L806.862 177.716H810.419H906.821H911.109L910.811 173.439C908.115 134.612 897.304 102.474 878.136 77.282C859.099 52.2614 834.608 33.7655 804.745 21.8183C775.529 9.91722 743.143 4 707.643 4C689.35 4 670.019 5.61396 649.656 8.82922L649.648 8.83052L649.64 8.83185C629.732 12.0601 610.358 17.1723 591.524 24.1681L591.506 24.1747L591.488 24.1816C573.029 31.2396 556.188 41.0175 540.981 53.5085L540.954 53.5312L540.927 53.5545C526.104 66.1814 514.09 82.3262 504.848 101.897L504.838 101.92L504.827 101.942C496.035 121.176 491.718 144.081 491.718 170.529C491.718 193.757 495.227 213.962 502.386 231.033C509.466 247.914 518.768 262.177 530.335 273.743L530.368 273.776L530.401 273.808C542.381 285.244 556.242 295.02 571.958 303.149L572.03 303.187L572.104 303.221C588.119 310.695 604.663 317.369 621.734 323.243C635.186 329.151 649.425 333.98 664.447 337.736C679.374 341.467 694.564 344.932 710.02 348.129C725.302 351.291 739.505 354.975 752.633 359.176L752.791 359.227L752.953 359.264C766.449 362.378 777.711 366.756 786.822 372.324L786.931 372.39L787.045 372.45C796.598 377.478 803.733 383.926 808.62 391.745L808.699 391.871L808.787 391.99C813.979 399.07 816.776 408.777 816.776 421.493C816.776 438.151 811.761 451.143 802.014 460.891L801.977 460.927L801.942 460.964C792.401 471.007 780.035 478.371 764.696 482.98C749.684 487.117 733.593 489.198 716.407 489.198C697.063 489.198 677.985 487.109 659.166 482.931C640.611 478.285 624.447 470.316 610.61 459.048C597.505 447.95 587.791 432.465 581.602 412.35L580.733 409.526H577.779H476.597H471.865L472.652 414.192C479.653 455.656 494.511 489.585 517.406 515.749L517.419 515.765L517.433 515.781C540.208 541.267 568.402 559.959 601.936 571.858Z" fill="black" stroke="white" stroke-width="8"/>
<path d="M4 578.445V582.445H8H405.559H409.559V578.445V487.62V483.62H405.559H111.589V347.415H366.52H370.52V343.415V254.184V250.184H366.52H111.589V109.995H405.559H409.559V105.995V15.1699V11.1699H405.559H8H4V15.1699V578.445Z" fill="black" stroke="white" stroke-width="8"/>
</svg>
