<svg width="3687" height="593" viewBox="0 0 3687 593" fill="none" xmlns="http://www.w3.org/2000/svg">
<path d="M3281.76 578.445V582.445H3285.76H3678.54H3682.54V578.445V487.62V483.62H3678.54H3389.35V15.1699V11.1699H3385.35H3285.76H3281.76V15.1699V578.445Z" fill="black" stroke="white" stroke-width="8"/>
<path d="M2795.77 557.154L2795.79 557.166L2795.81 557.177C2831.13 578.369 2875.99 588.819 2930.12 588.819C2985.32 588.819 3030.47 578.105 3065.29 556.342C3100.01 534.648 3125.76 504.259 3142.54 465.301C3159.26 426.455 3167.56 381.014 3167.56 329.074V15.1699V11.1699H3163.56H3063.17H3059.17V15.1699V331.465C3059.17 359.773 3055.24 385.907 3047.42 409.896L3047.41 409.933L3047.4 409.971C3040.19 433.666 3027.35 452.891 3008.88 467.77C2991.26 481.865 2965.73 489.197 2931.72 489.197C2898.29 489.197 2872.13 481.887 2852.85 467.685C2833.88 453.325 2820.27 434.361 2812.02 410.667C2804.2 386.146 2800.28 359.753 2800.28 331.465V15.1699V11.1699H2796.28H2696.69H2692.69V15.1699V329.074C2692.69 381.538 2700.98 427.247 2717.71 466.097C2734.49 505.074 2760.53 535.464 2795.77 557.154Z" fill="black" stroke="white" stroke-width="8"/>
<path d="M2155.93 578.445V582.445H2159.93H2259.52H2263.52V578.445V379.284H2372.67L2482.28 580.36L2483.41 582.445H2485.79H2597.33H2604.17L2600.81 576.481L2479.69 361.593C2502.6 353.578 2522.5 342.444 2539.35 328.158C2557.87 312.899 2572.3 294.096 2582.63 271.8C2593.01 249.403 2598.14 223.581 2598.14 194.43C2598.14 159.499 2592.5 129.922 2581.02 105.866C2569.59 81.9249 2553.75 63.0331 2533.47 49.3212C2513.35 35.1913 2490.29 25.4379 2464.34 20.0259C2438.53 14.116 2411.16 11.1699 2382.22 11.1699H2159.93H2155.93V15.1699V578.445ZM2455.87 264.284L2455.83 264.305L2455.8 264.327C2445.13 270.934 2432.32 275.826 2417.31 278.937C2402.72 281.538 2386.52 282.849 2368.67 282.849H2263.52V109.995H2379.03C2402.66 109.995 2422.68 112.623 2439.18 117.78L2439.2 117.785L2439.22 117.79C2456.05 122.89 2468.52 131.46 2476.95 143.362L2476.98 143.407L2477.01 143.45C2485.87 155.266 2490.54 171.824 2490.55 193.576C2490.03 211.735 2486.66 226.479 2480.65 237.992L2480.63 238.023L2480.62 238.054C2475.13 249.023 2466.92 257.755 2455.87 264.284Z" fill="black" stroke="white" stroke-width="8"/>
<path d="M1639.56 551.593L1639.57 551.599L1639.58 551.605C1681.22 576.48 1731.36 588.819 1789.82 588.819C1848.82 588.819 1899.23 576.213 1940.88 550.792C1982.96 525.433 2014.82 490.601 2036.4 446.367C2058.49 402.187 2069.48 351.905 2069.48 295.613C2069.48 238.793 2058.49 188.496 2036.39 144.829C2014.28 100.617 1982.43 66.0511 1940.86 41.2203C1899.75 16.3366 1849.87 4 1791.41 4C1732.94 4 1682.8 16.6084 1641.16 42.0214C1599.6 66.852 1567.75 101.416 1545.64 145.626C1523.54 189.299 1512.55 239.862 1512.55 297.206C1512.55 353.492 1523.27 403.769 1544.82 447.945L1544.83 447.963L1544.84 447.98C1566.94 492.187 1598.52 526.756 1639.56 551.593ZM1942.27 390.495L1942.26 390.524L1942.25 390.552C1930.84 419.598 1912.72 443.148 1887.85 461.284C1863.21 479.251 1831.17 488.401 1791.41 488.401C1752.2 488.401 1720.13 479.522 1694.94 462.053C1670.07 443.911 1651.69 420.351 1639.75 391.292C1627.75 362.058 1621.73 330.708 1621.73 297.206C1621.73 263.165 1627.75 231.551 1639.75 202.324C1651.69 173.256 1670.08 149.691 1694.96 131.547C1720.16 113.557 1752.21 104.419 1791.41 104.419C1821.2 104.419 1846.57 109.905 1867.67 120.71L1867.7 120.727L1867.74 120.745C1888.97 131.1 1906.25 145.302 1919.66 163.354L1919.68 163.383L1919.7 163.412C1933.71 181.575 1943.84 202.079 1950.08 224.961L1950.09 225.002L1950.11 225.042C1956.9 248.028 1960.3 272.078 1960.3 297.206C1960.3 330.169 1954.28 361.253 1942.27 390.495Z" fill="black" stroke="white" stroke-width="8"/>
<path d="M1197.89 578.445V582.445H1201.89H1300.69H1304.69V578.445V109.995H1476.76H1480.76V105.995V15.1699V11.1699H1476.76H1025.82H1021.82V15.1699V105.995V109.995H1025.82H1197.89V578.445Z" fill="black" stroke="white" stroke-width="8"/>
<path d="M851.163 578.445V582.445H855.163H954.752H958.752V578.445V15.1699V11.1699H954.752H855.163H851.163V15.1699V578.445Z" fill="black" stroke="white" stroke-width="8"/>
<path d="M625.532 578.445V582.445H629.532H729.121H733.121V578.445V15.1699V11.1699H729.121H629.532H625.532V15.1699V578.445Z" fill="black" stroke="white" stroke-width="8"/>
<path d="M216.189 579.83L217.155 582.445H219.942H353.789H356.584L357.545 579.821L563.894 16.5458L565.863 11.1699H560.138H452.582H449.729L448.8 13.8673L287.635 481.79L124.129 13.8505L123.192 11.1699H120.353H12H6.25947L8.24753 16.5552L216.189 579.83Z" fill="black" stroke="white" stroke-width="8"/>
</svg>
