<svg width="1800" height="580" viewBox="0 0 1800 580" fill="none" xmlns="http://www.w3.org/2000/svg">
<path d="M1349.65 571.275V575.275H1353.65H1563.18C1594.74 575.275 1624.48 572.601 1652.37 567.236L1652.41 567.229L1652.44 567.222C1680.43 561.301 1705.03 551.86 1726.19 538.844C1748.02 525.745 1764.98 508.245 1777.01 486.378C1789.64 463.854 1795.84 436.05 1795.84 403.169C1795.84 366.465 1787.47 336.351 1770.37 313.175C1755.1 291.995 1733.91 277.061 1707.01 268.299C1726.13 257.586 1740.99 242.91 1751.5 224.281L1751.51 224.262L1751.52 224.243C1763.55 202.376 1769.55 178.338 1769.55 152.205C1769.55 124.174 1764.97 100.429 1755.6 81.1433C1746.28 61.9574 1733.09 46.5417 1716.03 34.9804C1699.58 23.4712 1679.94 15.5889 1657.2 11.2515C1635.11 6.40812 1610.94 4 1584.69 4H1353.65H1349.65V8V571.275ZM1678.54 440.825L1678.52 440.847L1678.51 440.869C1672.58 450.251 1664.18 457.454 1653.15 462.468C1641.84 467.606 1629.2 471.23 1615.18 473.306C1601.04 475.402 1586.63 476.45 1571.94 476.45H1457.23V331.481H1589.47C1603.02 331.481 1616.03 332.784 1628.49 335.381L1628.57 335.397L1628.65 335.411C1640.96 337.463 1651.31 341.282 1659.8 346.774L1659.91 346.847L1660.03 346.912C1668.94 351.861 1675.84 358.759 1680.78 367.666C1685.67 376.457 1688.25 387.946 1688.25 402.372C1688.25 418.293 1684.91 431.019 1678.54 440.825ZM1651.81 124.587L1651.85 124.63L1651.89 124.671C1659.41 132.662 1663.55 145.29 1663.55 163.359C1663.55 177.194 1660.99 188.724 1656.06 198.105C1651.07 207.076 1644.07 214.849 1634.99 221.419C1625.9 227.467 1614.96 232.067 1602.08 235.157C1589.17 238.257 1574.61 239.827 1558.4 239.827H1457.23V102.825H1571.15C1588.98 102.825 1604.88 104.399 1618.88 107.51L1618.96 107.528L1619.04 107.543C1633.2 110.071 1644.01 115.814 1651.81 124.587Z" fill="black" stroke="white" stroke-width="8"/>
<path d="M857.944 571.275V575.275H861.944H1259.5H1263.5V571.275V480.45V476.45H1259.5H965.533V340.245H1220.46H1224.46V336.245V247.014V243.014H1220.46H965.533V102.825H1259.5H1263.5V98.8251V8V4H1259.5H861.944H857.944V8V571.275Z" fill="black" stroke="white" stroke-width="8"/>
<path d="M150.532 572.262L151.299 575.275H154.408H297.02H300.183L300.912 572.197L403.764 137.761L505.848 572.19L506.573 575.275H509.742H649.963H653.076L653.841 572.257L796.452 8.98175L797.713 4H792.574H686.612H683.434L682.715 7.09514L579.852 450.021L476.989 7.09514L476.27 4H473.093H337.652H334.474L333.756 7.09514L230.864 450.145L126.433 7.08234L125.706 4H122.54H11H5.85401L7.12366 8.9869L150.532 572.262Z" fill="black" stroke="white" stroke-width="8"/>
</svg>
